<?xml version="1.0" encoding="UTF-8" standalone="no"?>
<!DOCTYPE svg PUBLIC "-//W3C//DTD SVG 1.1//EN"
 "http://www.w3.org/Graphics/SVG/1.1/DTD/svg11.dtd">
<!-- Generated by graphviz version 2.38.0 (20140413.2041)
 -->
<!-- Title: controllers_diagram Pages: 1 -->
<svg width="716pt" height="653pt"
 viewBox="0.00 0.00 716.24 653.00" xmlns="http://www.w3.org/2000/svg" xmlns:xlink="http://www.w3.org/1999/xlink">
<g id="graph0" class="graph" transform="scale(1 1) rotate(0) translate(259.272 377.5)">
<title>controllers_diagram</title>
<polygon fill="none" stroke="none" points="-259.272,275.5 -259.272,-377.5 456.966,-377.5 456.966,275.5 -259.272,275.5"/>
<!-- _diagram_info -->
<g id="node1" class="node"><title>_diagram_info</title>
<text text-anchor="start" x="110.312" y="144.9" font-family="Times,serif" font-size="13.00">Controllers diagram</text>
<text text-anchor="start" x="110.312" y="157.9" font-family="Times,serif" font-size="13.00">Date: Aug 15 2015 &#45; 23:38</text>
<text text-anchor="start" x="110.312" y="170.9" font-family="Times,serif" font-size="13.00">Migration version: 20150810025940</text>
<text text-anchor="start" x="110.312" y="183.9" font-family="Times,serif" font-size="13.00">Generated by RailRoady 1.3.1</text>
<text text-anchor="start" x="110.312" y="196.9" font-family="Times,serif" font-size="13.00">http://railroady.prestonlee.com</text>
</g>
<!-- ApplicationController -->
<g id="node2" class="node"><title>ApplicationController</title>
<path fill="none" stroke="black" d="M267.034,101C267.034,101 440.966,101 440.966,101 446.966,101 452.966,95 452.966,89 452.966,89 452.966,25 452.966,25 452.966,19 446.966,13 440.966,13 440.966,13 267.034,13 267.034,13 261.034,13 255.034,19 255.034,25 255.034,25 255.034,89 255.034,89 255.034,95 261.034,101 267.034,101"/>
<text text-anchor="middle" x="354" y="28.2" font-family="Times,serif" font-size="14.00">ApplicationController</text>
<polyline fill="none" stroke="black" points="255.034,35 452.966,35 "/>
<text text-anchor="start" x="263.034" y="50.2" font-family="Times,serif" font-size="14.00">current_user</text>
<polyline fill="none" stroke="black" points="255.034,57 452.966,57 "/>
<text text-anchor="start" x="263.034" y="72.2" font-family="Times,serif" font-size="14.00">configure_permitted_parameters</text>
<polyline fill="none" stroke="black" points="255.034,79 452.966,79 "/>
<text text-anchor="start" x="263.034" y="94.2" font-family="Times,serif" font-size="14.00">_layout</text>
</g>
<!-- ClientsController -->
<g id="node3" class="node"><title>ClientsController</title>
<path fill="none" stroke="black" d="M148.393,-137C148.393,-137 237.607,-137 237.607,-137 243.607,-137 249.607,-143 249.607,-149 249.607,-149 249.607,-341 249.607,-341 249.607,-347 243.607,-353 237.607,-353 237.607,-353 148.393,-353 148.393,-353 142.393,-353 136.393,-347 136.393,-341 136.393,-341 136.393,-149 136.393,-149 136.393,-143 142.393,-137 148.393,-137"/>
<text text-anchor="middle" x="193" y="-337.8" font-family="Times,serif" font-size="14.00">ClientsController</text>
<polyline fill="none" stroke="black" points="136.393,-331 249.607,-331 "/>
<text text-anchor="start" x="144.393" y="-315.8" font-family="Times,serif" font-size="14.00">change_status</text>
<text text-anchor="start" x="144.393" y="-301.8" font-family="Times,serif" font-size="14.00">create</text>
<text text-anchor="start" x="144.393" y="-287.8" font-family="Times,serif" font-size="14.00">destroy</text>
<text text-anchor="start" x="144.393" y="-273.8" font-family="Times,serif" font-size="14.00">edit</text>
<text text-anchor="start" x="144.393" y="-259.8" font-family="Times,serif" font-size="14.00">index</text>
<text text-anchor="start" x="144.393" y="-245.8" font-family="Times,serif" font-size="14.00">new</text>
<text text-anchor="start" x="144.393" y="-231.8" font-family="Times,serif" font-size="14.00">show</text>
<text text-anchor="start" x="144.393" y="-217.8" font-family="Times,serif" font-size="14.00">update</text>
<polyline fill="none" stroke="black" points="136.393,-211 249.607,-211 "/>
<polyline fill="none" stroke="black" points="136.393,-187 249.607,-187 "/>
<text text-anchor="start" x="144.393" y="-171.8" font-family="Times,serif" font-size="14.00">_layout</text>
<text text-anchor="start" x="144.393" y="-157.8" font-family="Times,serif" font-size="14.00">client_params</text>
<text text-anchor="start" x="144.393" y="-143.8" font-family="Times,serif" font-size="14.00">set_client</text>
</g>
<!-- DiscountsController -->
<g id="node4" class="node"><title>DiscountsController</title>
<path fill="none" stroke="black" d="M-21.7725,-154C-21.7725,-154 83.7725,-154 83.7725,-154 89.7725,-154 95.7725,-160 95.7725,-166 95.7725,-166 95.7725,-330 95.7725,-330 95.7725,-336 89.7725,-342 83.7725,-342 83.7725,-342 -21.7725,-342 -21.7725,-342 -27.7725,-342 -33.7725,-336 -33.7725,-330 -33.7725,-330 -33.7725,-166 -33.7725,-166 -33.7725,-160 -27.7725,-154 -21.7725,-154"/>
<text text-anchor="middle" x="31" y="-326.8" font-family="Times,serif" font-size="14.00">DiscountsController</text>
<polyline fill="none" stroke="black" points="-33.7725,-320 95.7725,-320 "/>
<text text-anchor="start" x="-25.7725" y="-304.8" font-family="Times,serif" font-size="14.00">create</text>
<text text-anchor="start" x="-25.7725" y="-290.8" font-family="Times,serif" font-size="14.00">destroy</text>
<text text-anchor="start" x="-25.7725" y="-276.8" font-family="Times,serif" font-size="14.00">edit</text>
<text text-anchor="start" x="-25.7725" y="-262.8" font-family="Times,serif" font-size="14.00">index</text>
<text text-anchor="start" x="-25.7725" y="-248.8" font-family="Times,serif" font-size="14.00">new</text>
<text text-anchor="start" x="-25.7725" y="-234.8" font-family="Times,serif" font-size="14.00">update</text>
<polyline fill="none" stroke="black" points="-33.7725,-228 95.7725,-228 "/>
<polyline fill="none" stroke="black" points="-33.7725,-204 95.7725,-204 "/>
<text text-anchor="start" x="-25.7725" y="-188.8" font-family="Times,serif" font-size="14.00">_layout</text>
<text text-anchor="start" x="-25.7725" y="-174.8" font-family="Times,serif" font-size="14.00">discount_params</text>
<text text-anchor="start" x="-25.7725" y="-160.8" font-family="Times,serif" font-size="14.00">set_discount</text>
</g>
<!-- HomeController -->
<g id="node5" class="node"><title>HomeController</title>
<path fill="none" stroke="black" d="M267.121,-18C267.121,-18 350.879,-18 350.879,-18 356.879,-18 362.879,-24 362.879,-30 362.879,-30 362.879,-96 362.879,-96 362.879,-102 356.879,-108 350.879,-108 350.879,-108 267.121,-108 267.121,-108 261.121,-108 255.121,-102 255.121,-96 255.121,-96 255.121,-30 255.121,-30 255.121,-24 261.121,-18 267.121,-18"/>
<text text-anchor="middle" x="309" y="-92.8" font-family="Times,serif" font-size="14.00">HomeController</text>
<polyline fill="none" stroke="black" points="255.121,-86 362.879,-86 "/>
<text text-anchor="start" x="263.121" y="-70.8" font-family="Times,serif" font-size="14.00">index</text>
<polyline fill="none" stroke="black" points="255.121,-64 362.879,-64 "/>
<polyline fill="none" stroke="black" points="255.121,-40 362.879,-40 "/>
<text text-anchor="start" x="263.121" y="-24.8" font-family="Times,serif" font-size="14.00">_layout</text>
</g>
<!-- MessagesController -->
<g id="node6" class="node"><title>MessagesController</title>
<path fill="none" stroke="black" d="M114.01,101C114.01,101 217.99,101 217.99,101 223.99,101 229.99,95 229.99,89 229.99,89 229.99,-89 229.99,-89 229.99,-95 223.99,-101 217.99,-101 217.99,-101 114.01,-101 114.01,-101 108.01,-101 102.01,-95 102.01,-89 102.01,-89 102.01,89 102.01,89 102.01,95 108.01,101 114.01,101"/>
<text text-anchor="middle" x="166" y="-85.8" font-family="Times,serif" font-size="14.00">MessagesController</text>
<polyline fill="none" stroke="black" points="102.01,-79 229.99,-79 "/>
<text text-anchor="start" x="110.01" y="-63.8" font-family="Times,serif" font-size="14.00">create</text>
<text text-anchor="start" x="110.01" y="-49.8" font-family="Times,serif" font-size="14.00">destroy</text>
<text text-anchor="start" x="110.01" y="-35.8" font-family="Times,serif" font-size="14.00">edit</text>
<text text-anchor="start" x="110.01" y="-21.8" font-family="Times,serif" font-size="14.00">index</text>
<text text-anchor="start" x="110.01" y="-7.8" font-family="Times,serif" font-size="14.00">new</text>
<text text-anchor="start" x="110.01" y="6.2" font-family="Times,serif" font-size="14.00">show</text>
<text text-anchor="start" x="110.01" y="20.2" font-family="Times,serif" font-size="14.00">update</text>
<polyline fill="none" stroke="black" points="102.01,27 229.99,27 "/>
<polyline fill="none" stroke="black" points="102.01,51 229.99,51 "/>
<text text-anchor="start" x="110.01" y="66.2" font-family="Times,serif" font-size="14.00">_layout</text>
<text text-anchor="start" x="110.01" y="80.2" font-family="Times,serif" font-size="14.00">message_params</text>
<text text-anchor="start" x="110.01" y="94.2" font-family="Times,serif" font-size="14.00">set_message</text>
</g>
<!-- OrdersController -->
<g id="node7" class="node"><title>OrdersController</title>
<path fill="none" stroke="black" d="M-225.821,67C-225.821,67 -138.179,67 -138.179,67 -132.179,67 -126.179,61 -126.179,55 -126.179,55 -126.179,-123 -126.179,-123 -126.179,-129 -132.179,-135 -138.179,-135 -138.179,-135 -225.821,-135 -225.821,-135 -231.821,-135 -237.821,-129 -237.821,-123 -237.821,-123 -237.821,55 -237.821,55 -237.821,61 -231.821,67 -225.821,67"/>
<text text-anchor="middle" x="-182" y="-119.8" font-family="Times,serif" font-size="14.00">OrdersController</text>
<polyline fill="none" stroke="black" points="-237.821,-113 -126.179,-113 "/>
<text text-anchor="start" x="-229.821" y="-97.8" font-family="Times,serif" font-size="14.00">create</text>
<text text-anchor="start" x="-229.821" y="-83.8" font-family="Times,serif" font-size="14.00">destroy</text>
<text text-anchor="start" x="-229.821" y="-69.8" font-family="Times,serif" font-size="14.00">index</text>
<text text-anchor="start" x="-229.821" y="-55.8" font-family="Times,serif" font-size="14.00">massive_update</text>
<text text-anchor="start" x="-229.821" y="-41.8" font-family="Times,serif" font-size="14.00">review</text>
<text text-anchor="start" x="-229.821" y="-27.8" font-family="Times,serif" font-size="14.00">show</text>
<text text-anchor="start" x="-229.821" y="-13.8" font-family="Times,serif" font-size="14.00">update</text>
<polyline fill="none" stroke="black" points="-237.821,-7 -126.179,-7 "/>
<polyline fill="none" stroke="black" points="-237.821,17 -126.179,17 "/>
<text text-anchor="start" x="-229.821" y="32.2" font-family="Times,serif" font-size="14.00">_layout</text>
<text text-anchor="start" x="-229.821" y="46.2" font-family="Times,serif" font-size="14.00">order_params</text>
<text text-anchor="start" x="-229.821" y="60.2" font-family="Times,serif" font-size="14.00">set_order</text>
</g>
<!-- ProductsController -->
<g id="node8" class="node"><title>ProductsController</title>
<path fill="none" stroke="black" d="M-243.272,254C-243.272,254 -144.728,254 -144.728,254 -138.728,254 -132.728,248 -132.728,242 -132.728,242 -132.728,106 -132.728,106 -132.728,100 -138.728,94 -144.728,94 -144.728,94 -243.272,94 -243.272,94 -249.272,94 -255.272,100 -255.272,106 -255.272,106 -255.272,242 -255.272,242 -255.272,248 -249.272,254 -243.272,254"/>
<text text-anchor="middle" x="-194" y="109.2" font-family="Times,serif" font-size="14.00">ProductsController</text>
<polyline fill="none" stroke="black" points="-255.272,116 -132.728,116 "/>
<text text-anchor="start" x="-247.272" y="131.2" font-family="Times,serif" font-size="14.00">index</text>
<text text-anchor="start" x="-247.272" y="145.2" font-family="Times,serif" font-size="14.00">massive_process</text>
<text text-anchor="start" x="-247.272" y="159.2" font-family="Times,serif" font-size="14.00">show</text>
<text text-anchor="start" x="-247.272" y="173.2" font-family="Times,serif" font-size="14.00">upload_file</text>
<polyline fill="none" stroke="black" points="-255.272,180 -132.728,180 "/>
<polyline fill="none" stroke="black" points="-255.272,204 -132.728,204 "/>
<text text-anchor="start" x="-247.272" y="219.2" font-family="Times,serif" font-size="14.00">_layout</text>
<text text-anchor="start" x="-247.272" y="233.2" font-family="Times,serif" font-size="14.00">file_params</text>
<text text-anchor="start" x="-247.272" y="247.2" font-family="Times,serif" font-size="14.00">set_product</text>
</g>
<!-- SaintController -->
<g id="node9" class="node"><title>SaintController</title>
<path fill="none" stroke="black" d="M-90.1621,271C-90.1621,271 -11.8379,271 -11.8379,271 -5.83789,271 0.162109,265 0.162109,259 0.162109,259 0.162109,179 0.162109,179 0.162109,173 -5.83789,167 -11.8379,167 -11.8379,167 -90.1621,167 -90.1621,167 -96.1621,167 -102.162,173 -102.162,179 -102.162,179 -102.162,259 -102.162,259 -102.162,265 -96.1621,271 -90.1621,271"/>
<text text-anchor="middle" x="-51" y="182.2" font-family="Times,serif" font-size="14.00">SaintController</text>
<polyline fill="none" stroke="black" points="-102.162,189 0.162109,189 "/>
<text text-anchor="start" x="-94.1621" y="204.2" font-family="Times,serif" font-size="14.00">pending</text>
<text text-anchor="start" x="-94.1621" y="218.2" font-family="Times,serif" font-size="14.00">sincronize</text>
<polyline fill="none" stroke="black" points="-102.162,225 0.162109,225 "/>
<polyline fill="none" stroke="black" points="-102.162,249 0.162109,249 "/>
<text text-anchor="start" x="-94.1621" y="264.2" font-family="Times,serif" font-size="14.00">_layout</text>
</g>
<!-- UsersController -->
<g id="node10" class="node"><title>UsersController</title>
<path fill="none" stroke="black" d="M-73.3174,135C-73.3174,135 49.3174,135 49.3174,135 55.3174,135 61.3174,129 61.3174,123 61.3174,123 61.3174,-111 61.3174,-111 61.3174,-117 55.3174,-123 49.3174,-123 49.3174,-123 -73.3174,-123 -73.3174,-123 -79.3174,-123 -85.3174,-117 -85.3174,-111 -85.3174,-111 -85.3174,123 -85.3174,123 -85.3174,129 -79.3174,135 -73.3174,135"/>
<text text-anchor="middle" x="-12" y="-107.8" font-family="Times,serif" font-size="14.00">UsersController</text>
<polyline fill="none" stroke="black" points="-85.3174,-101 61.3174,-101 "/>
<text text-anchor="start" x="-77.3174" y="-85.8" font-family="Times,serif" font-size="14.00">change_status</text>
<text text-anchor="start" x="-77.3174" y="-71.8" font-family="Times,serif" font-size="14.00">create</text>
<text text-anchor="start" x="-77.3174" y="-57.8" font-family="Times,serif" font-size="14.00">destroy</text>
<text text-anchor="start" x="-77.3174" y="-43.8" font-family="Times,serif" font-size="14.00">edit</text>
<text text-anchor="start" x="-77.3174" y="-29.8" font-family="Times,serif" font-size="14.00">edit_password</text>
<text text-anchor="start" x="-77.3174" y="-15.8" font-family="Times,serif" font-size="14.00">index</text>
<text text-anchor="start" x="-77.3174" y="-1.8" font-family="Times,serif" font-size="14.00">new</text>
<text text-anchor="start" x="-77.3174" y="12.2" font-family="Times,serif" font-size="14.00">show</text>
<text text-anchor="start" x="-77.3174" y="26.2" font-family="Times,serif" font-size="14.00">update</text>
<text text-anchor="start" x="-77.3174" y="40.2" font-family="Times,serif" font-size="14.00">update_password</text>
<polyline fill="none" stroke="black" points="-85.3174,47 61.3174,47 "/>
<polyline fill="none" stroke="black" points="-85.3174,71 61.3174,71 "/>
<text text-anchor="start" x="-77.3174" y="86.2" font-family="Times,serif" font-size="14.00">_layout</text>
<text text-anchor="start" x="-77.3174" y="100.2" font-family="Times,serif" font-size="14.00">set_user</text>
<text text-anchor="start" x="-77.3174" y="114.2" font-family="Times,serif" font-size="14.00">user_params</text>
<text text-anchor="start" x="-77.3174" y="128.2" font-family="Times,serif" font-size="14.00">user_params_password</text>
</g>
<!-- ZonesController -->
<g id="node11" class="node"><title>ZonesController</title>
<path fill="none" stroke="black" d="M-157.879,-171C-157.879,-171 -74.1206,-171 -74.1206,-171 -68.1206,-171 -62.1206,-177 -62.1206,-183 -62.1206,-183 -62.1206,-361 -62.1206,-361 -62.1206,-367 -68.1206,-373 -74.1206,-373 -74.1206,-373 -157.879,-373 -157.879,-373 -163.879,-373 -169.879,-367 -169.879,-361 -169.879,-361 -169.879,-183 -169.879,-183 -169.879,-177 -163.879,-171 -157.879,-171"/>
<text text-anchor="middle" x="-116" y="-357.8" font-family="Times,serif" font-size="14.00">ZonesController</text>
<polyline fill="none" stroke="black" points="-169.879,-351 -62.1206,-351 "/>
<text text-anchor="start" x="-161.879" y="-335.8" font-family="Times,serif" font-size="14.00">create</text>
<text text-anchor="start" x="-161.879" y="-321.8" font-family="Times,serif" font-size="14.00">destroy</text>
<text text-anchor="start" x="-161.879" y="-307.8" font-family="Times,serif" font-size="14.00">edit</text>
<text text-anchor="start" x="-161.879" y="-293.8" font-family="Times,serif" font-size="14.00">index</text>
<text text-anchor="start" x="-161.879" y="-279.8" font-family="Times,serif" font-size="14.00">new</text>
<text text-anchor="start" x="-161.879" y="-265.8" font-family="Times,serif" font-size="14.00">show</text>
<text text-anchor="start" x="-161.879" y="-251.8" font-family="Times,serif" font-size="14.00">update</text>
<polyline fill="none" stroke="black" points="-169.879,-245 -62.1206,-245 "/>
<polyline fill="none" stroke="black" points="-169.879,-221 -62.1206,-221 "/>
<text text-anchor="start" x="-161.879" y="-205.8" font-family="Times,serif" font-size="14.00">_layout</text>
<text text-anchor="start" x="-161.879" y="-191.8" font-family="Times,serif" font-size="14.00">set_zone</text>
<text text-anchor="start" x="-161.879" y="-177.8" font-family="Times,serif" font-size="14.00">zone_params</text>
</g>
</g>
</svg>
