<?xml version="1.0" encoding="UTF-8" standalone="no"?>
<!DOCTYPE svg PUBLIC "-//W3C//DTD SVG 1.1//EN"
 "http://www.w3.org/Graphics/SVG/1.1/DTD/svg11.dtd">
<!-- Generated by graphviz version 2.38.0 (20140413.2041)
 -->
<!-- Title: models_diagram Pages: 1 -->
<svg width="1777pt" height="692pt"
 viewBox="0.00 0.00 1776.97 692.00" xmlns="http://www.w3.org/2000/svg" xmlns:xlink="http://www.w3.org/1999/xlink">
<g id="graph0" class="graph" transform="scale(1 1) rotate(0) translate(4 688)">
<title>models_diagram</title>
<polygon fill="none" stroke="none" points="-4,4 -4,-688 1772.97,-688 1772.97,4 -4,4"/>
<!-- _diagram_info -->
<g id="node1" class="node"><title>_diagram_info</title>
<text text-anchor="start" x="8" y="-557.6" font-family="Times,serif" font-size="13.00">Models diagram</text>
<text text-anchor="start" x="8" y="-544.6" font-family="Times,serif" font-size="13.00">Date: Aug 15 2015 &#45; 23:38</text>
<text text-anchor="start" x="8" y="-531.6" font-family="Times,serif" font-size="13.00">Migration version: 20150810025940</text>
<text text-anchor="start" x="8" y="-518.6" font-family="Times,serif" font-size="13.00">Generated by RailRoady 1.3.1</text>
<text text-anchor="start" x="8" y="-505.6" font-family="Times,serif" font-size="13.00">http://railroady.prestonlee.com</text>
</g>
<!-- Client -->
<g id="node2" class="node"><title>Client</title>
<path fill="none" stroke="black" d="M239.306,-0.5C239.306,-0.5 412.069,-0.5 412.069,-0.5 418.069,-0.5 424.069,-6.5 424.069,-12.5 424.069,-12.5 424.069,-186.5 424.069,-186.5 424.069,-192.5 418.069,-198.5 412.069,-198.5 412.069,-198.5 239.306,-198.5 239.306,-198.5 233.306,-198.5 227.306,-192.5 227.306,-186.5 227.306,-186.5 227.306,-12.5 227.306,-12.5 227.306,-6.5 233.306,-0.5 239.306,-0.5"/>
<text text-anchor="middle" x="325.688" y="-183.3" font-family="Times,serif" font-size="14.00">Client</text>
<polyline fill="none" stroke="black" points="227.306,-176.5 424.069,-176.5 "/>
<text text-anchor="start" x="235.306" y="-161.3" font-family="Times,serif" font-size="14.00">id :integer</text>
<text text-anchor="start" x="235.306" y="-147.3" font-family="Times,serif" font-size="14.00">zone_id :integer</text>
<text text-anchor="start" x="235.306" y="-133.3" font-family="Times,serif" font-size="14.00">cliente :string</text>
<text text-anchor="start" x="235.306" y="-119.3" font-family="Times,serif" font-size="14.00">description :text</text>
<text text-anchor="start" x="235.306" y="-105.3" font-family="Times,serif" font-size="14.00">status :integer</text>
<text text-anchor="start" x="235.306" y="-91.3" font-family="Times,serif" font-size="14.00">zona_postal :integer</text>
<text text-anchor="start" x="235.306" y="-77.3" font-family="Times,serif" font-size="14.00">cliente_optional :string</text>
<text text-anchor="start" x="235.306" y="-63.3" font-family="Times,serif" font-size="14.00">direction :string</text>
<text text-anchor="start" x="235.306" y="-49.3" font-family="Times,serif" font-size="14.00">rif :string</text>
<text text-anchor="start" x="235.306" y="-35.3" font-family="Times,serif" font-size="14.00">contribuyente_especial :boolean</text>
<text text-anchor="start" x="235.306" y="-21.3" font-family="Times,serif" font-size="14.00">telefono :string</text>
<text text-anchor="start" x="235.306" y="-7.3" font-family="Times,serif" font-size="14.00">saint_id :string</text>
</g>
<!-- Discount -->
<g id="node3" class="node"><title>Discount</title>
<path fill="none" stroke="black" d="M459.893,-492.5C459.893,-492.5 563.483,-492.5 563.483,-492.5 569.483,-492.5 575.483,-498.5 575.483,-504.5 575.483,-504.5 575.483,-566.5 575.483,-566.5 575.483,-572.5 569.483,-578.5 563.483,-578.5 563.483,-578.5 459.893,-578.5 459.893,-578.5 453.893,-578.5 447.893,-572.5 447.893,-566.5 447.893,-566.5 447.893,-504.5 447.893,-504.5 447.893,-498.5 453.893,-492.5 459.893,-492.5"/>
<text text-anchor="middle" x="511.688" y="-563.3" font-family="Times,serif" font-size="14.00">Discount</text>
<polyline fill="none" stroke="black" points="447.893,-556.5 575.483,-556.5 "/>
<text text-anchor="start" x="455.893" y="-541.3" font-family="Times,serif" font-size="14.00">id_discount :integer</text>
<text text-anchor="start" x="455.893" y="-527.3" font-family="Times,serif" font-size="14.00">name :string</text>
<text text-anchor="start" x="455.893" y="-513.3" font-family="Times,serif" font-size="14.00">percent :float</text>
<text text-anchor="start" x="455.893" y="-499.3" font-family="Times,serif" font-size="14.00">day :integer</text>
</g>
<!-- IVA -->
<g id="node4" class="node"><title>IVA</title>
<path fill="none" stroke="black" d="M605.951,-506.5C605.951,-506.5 671.424,-506.5 671.424,-506.5 677.424,-506.5 683.424,-512.5 683.424,-518.5 683.424,-518.5 683.424,-552.5 683.424,-552.5 683.424,-558.5 677.424,-564.5 671.424,-564.5 671.424,-564.5 605.951,-564.5 605.951,-564.5 599.951,-564.5 593.951,-558.5 593.951,-552.5 593.951,-552.5 593.951,-518.5 593.951,-518.5 593.951,-512.5 599.951,-506.5 605.951,-506.5"/>
<text text-anchor="middle" x="638.688" y="-549.3" font-family="Times,serif" font-size="14.00">IVA</text>
<polyline fill="none" stroke="black" points="593.951,-542.5 683.424,-542.5 "/>
<text text-anchor="start" x="601.951" y="-527.3" font-family="Times,serif" font-size="14.00">id :integer</text>
<text text-anchor="start" x="601.951" y="-513.3" font-family="Times,serif" font-size="14.00">percent :float</text>
</g>
<!-- Order::Item -->
<g id="node5" class="node"><title>Order::Item</title>
<path fill="none" stroke="black" d="M729.893,-243.5C729.893,-243.5 819.483,-243.5 819.483,-243.5 825.483,-243.5 831.483,-249.5 831.483,-255.5 831.483,-255.5 831.483,-317.5 831.483,-317.5 831.483,-323.5 825.483,-329.5 819.483,-329.5 819.483,-329.5 729.893,-329.5 729.893,-329.5 723.893,-329.5 717.893,-323.5 717.893,-317.5 717.893,-317.5 717.893,-255.5 717.893,-255.5 717.893,-249.5 723.893,-243.5 729.893,-243.5"/>
<text text-anchor="middle" x="774.688" y="-314.3" font-family="Times,serif" font-size="14.00">Order::Item</text>
<polyline fill="none" stroke="black" points="717.893,-307.5 831.483,-307.5 "/>
<text text-anchor="start" x="725.893" y="-292.3" font-family="Times,serif" font-size="14.00">id :integer</text>
<text text-anchor="start" x="725.893" y="-278.3" font-family="Times,serif" font-size="14.00">order_id :integer</text>
<text text-anchor="start" x="725.893" y="-264.3" font-family="Times,serif" font-size="14.00">item_code :string</text>
<text text-anchor="start" x="725.893" y="-250.3" font-family="Times,serif" font-size="14.00">quantity :integer</text>
</g>
<!-- Order -->
<g id="node6" class="node"><title>Order</title>
<path fill="none" stroke="black" d="M713.575,-443.5C713.575,-443.5 835.8,-443.5 835.8,-443.5 841.8,-443.5 847.8,-449.5 847.8,-455.5 847.8,-455.5 847.8,-615.5 847.8,-615.5 847.8,-621.5 841.8,-627.5 835.8,-627.5 835.8,-627.5 713.575,-627.5 713.575,-627.5 707.575,-627.5 701.575,-621.5 701.575,-615.5 701.575,-615.5 701.575,-455.5 701.575,-455.5 701.575,-449.5 707.575,-443.5 713.575,-443.5"/>
<text text-anchor="middle" x="774.688" y="-612.3" font-family="Times,serif" font-size="14.00">Order</text>
<polyline fill="none" stroke="black" points="701.575,-605.5 847.8,-605.5 "/>
<text text-anchor="start" x="709.575" y="-590.3" font-family="Times,serif" font-size="14.00">id :integer</text>
<text text-anchor="start" x="709.575" y="-576.3" font-family="Times,serif" font-size="14.00">client_id :integer</text>
<text text-anchor="start" x="709.575" y="-562.3" font-family="Times,serif" font-size="14.00">date_created :datetime</text>
<text text-anchor="start" x="709.575" y="-548.3" font-family="Times,serif" font-size="14.00">discount :float</text>
<text text-anchor="start" x="709.575" y="-534.3" font-family="Times,serif" font-size="14.00">review :boolean</text>
<text text-anchor="start" x="709.575" y="-520.3" font-family="Times,serif" font-size="14.00">saint_code :string</text>
<text text-anchor="start" x="709.575" y="-506.3" font-family="Times,serif" font-size="14.00">status :string</text>
<text text-anchor="start" x="709.575" y="-492.3" font-family="Times,serif" font-size="14.00">comentario :text</text>
<text text-anchor="start" x="709.575" y="-478.3" font-family="Times,serif" font-size="14.00">date_updated :datetime</text>
<text text-anchor="start" x="709.575" y="-464.3" font-family="Times,serif" font-size="14.00">time :datetime</text>
<text text-anchor="start" x="709.575" y="-450.3" font-family="Times,serif" font-size="14.00">user_id :integer</text>
</g>
<!-- Order&#45;&gt;Order::Item -->
<g id="edge1" class="edge"><title>Order&#45;&gt;Order::Item</title>
<path fill="none" stroke="#8cabea" d="M774.688,-434.962C774.688,-402.439 774.688,-367.611 774.688,-339.972"/>
<ellipse fill="none" stroke="#8cabea" cx="774.688" cy="-439.228" rx="4" ry="4"/>
<polygon fill="#8cabea" stroke="#8cabea" points="774.688,-339.751 779.188,-329.751 774.688,-334.751 774.688,-329.751 774.688,-329.751 774.688,-329.751 774.688,-334.751 770.188,-329.751 774.688,-339.751 774.688,-339.751"/>
<text text-anchor="middle" x="789.853" y="-357.8" font-family="Times,serif" font-size="14.00">items</text>
</g>
<!-- Product -->
<g id="node7" class="node"><title>Product</title>
<path fill="none" stroke="black" d="M878.182,-464.5C878.182,-464.5 987.193,-464.5 987.193,-464.5 993.193,-464.5 999.193,-470.5 999.193,-476.5 999.193,-476.5 999.193,-594.5 999.193,-594.5 999.193,-600.5 993.193,-606.5 987.193,-606.5 987.193,-606.5 878.182,-606.5 878.182,-606.5 872.182,-606.5 866.182,-600.5 866.182,-594.5 866.182,-594.5 866.182,-476.5 866.182,-476.5 866.182,-470.5 872.182,-464.5 878.182,-464.5"/>
<text text-anchor="middle" x="932.688" y="-591.3" font-family="Times,serif" font-size="14.00">Product</text>
<polyline fill="none" stroke="black" points="866.182,-584.5 999.193,-584.5 "/>
<text text-anchor="start" x="874.182" y="-569.3" font-family="Times,serif" font-size="14.00">id :integer</text>
<text text-anchor="start" x="874.182" y="-555.3" font-family="Times,serif" font-size="14.00">code :string</text>
<text text-anchor="start" x="874.182" y="-541.3" font-family="Times,serif" font-size="14.00">trademark :string</text>
<text text-anchor="start" x="874.182" y="-527.3" font-family="Times,serif" font-size="14.00">price :float</text>
<text text-anchor="start" x="874.182" y="-513.3" font-family="Times,serif" font-size="14.00">updated_at :datetime</text>
<text text-anchor="start" x="874.182" y="-499.3" font-family="Times,serif" font-size="14.00">units :integer</text>
<text text-anchor="start" x="874.182" y="-485.3" font-family="Times,serif" font-size="14.00">description :string</text>
<text text-anchor="start" x="874.182" y="-471.3" font-family="Times,serif" font-size="14.00">created_at :datetime</text>
</g>
<!-- User::Administration -->
<g id="node8" class="node"><title>User::Administration</title>
<path fill="none" stroke="black" d="M1029.41,-387.5C1029.41,-387.5 1209.97,-387.5 1209.97,-387.5 1215.97,-387.5 1221.97,-393.5 1221.97,-399.5 1221.97,-399.5 1221.97,-671.5 1221.97,-671.5 1221.97,-677.5 1215.97,-683.5 1209.97,-683.5 1209.97,-683.5 1029.41,-683.5 1029.41,-683.5 1023.41,-683.5 1017.41,-677.5 1017.41,-671.5 1017.41,-671.5 1017.41,-399.5 1017.41,-399.5 1017.41,-393.5 1023.41,-387.5 1029.41,-387.5"/>
<text text-anchor="middle" x="1119.69" y="-668.3" font-family="Times,serif" font-size="14.00">User::Administration</text>
<polyline fill="none" stroke="black" points="1017.41,-661.5 1221.97,-661.5 "/>
<text text-anchor="start" x="1025.41" y="-646.3" font-family="Times,serif" font-size="14.00">id :integer</text>
<text text-anchor="start" x="1025.41" y="-632.3" font-family="Times,serif" font-size="14.00">login :string</text>
<text text-anchor="start" x="1025.41" y="-618.3" font-family="Times,serif" font-size="14.00">name :string</text>
<text text-anchor="start" x="1025.41" y="-604.3" font-family="Times,serif" font-size="14.00">email :string</text>
<text text-anchor="start" x="1025.41" y="-590.3" font-family="Times,serif" font-size="14.00">type :string</text>
<text text-anchor="start" x="1025.41" y="-576.3" font-family="Times,serif" font-size="14.00">status :integer</text>
<text text-anchor="start" x="1025.41" y="-562.3" font-family="Times,serif" font-size="14.00">saint_id :string</text>
<text text-anchor="start" x="1025.41" y="-548.3" font-family="Times,serif" font-size="14.00">token :string</text>
<text text-anchor="start" x="1025.41" y="-534.3" font-family="Times,serif" font-size="14.00">encrypted_password :string</text>
<text text-anchor="start" x="1025.41" y="-520.3" font-family="Times,serif" font-size="14.00">reset_password_token :string</text>
<text text-anchor="start" x="1025.41" y="-506.3" font-family="Times,serif" font-size="14.00">reset_password_sent_at :datetime</text>
<text text-anchor="start" x="1025.41" y="-492.3" font-family="Times,serif" font-size="14.00">remember_created_at :datetime</text>
<text text-anchor="start" x="1025.41" y="-478.3" font-family="Times,serif" font-size="14.00">sign_in_count :integer</text>
<text text-anchor="start" x="1025.41" y="-464.3" font-family="Times,serif" font-size="14.00">current_sign_in_at :datetime</text>
<text text-anchor="start" x="1025.41" y="-450.3" font-family="Times,serif" font-size="14.00">last_sign_in_at :datetime</text>
<text text-anchor="start" x="1025.41" y="-436.3" font-family="Times,serif" font-size="14.00">current_sign_in_ip :string</text>
<text text-anchor="start" x="1025.41" y="-422.3" font-family="Times,serif" font-size="14.00">last_sign_in_ip :string</text>
<text text-anchor="start" x="1025.41" y="-408.3" font-family="Times,serif" font-size="14.00">created_at :datetime</text>
<text text-anchor="start" x="1025.41" y="-394.3" font-family="Times,serif" font-size="14.00">updated_at :datetime</text>
</g>
<!-- User::Guest -->
<g id="node9" class="node"><title>User::Guest</title>
<polygon fill="none" stroke="black" points="1240.25,-513.5 1240.25,-557.5 1323.13,-557.5 1323.13,-513.5 1240.25,-513.5"/>
<text text-anchor="middle" x="1281.69" y="-542.3" font-family="Times,serif" font-size="14.00">User::Guest</text>
<polyline fill="none" stroke="black" points="1240.25,-535.5 1323.13,-535.5 "/>
<text text-anchor="middle" x="1281.69" y="-520.3" font-family="Times,serif" font-size="14.00"> </text>
</g>
<!-- User::Nil -->
<g id="node10" class="node"><title>User::Nil</title>
<path fill="none" stroke="black" d="M1353.41,-387.5C1353.41,-387.5 1533.97,-387.5 1533.97,-387.5 1539.97,-387.5 1545.97,-393.5 1545.97,-399.5 1545.97,-399.5 1545.97,-671.5 1545.97,-671.5 1545.97,-677.5 1539.97,-683.5 1533.97,-683.5 1533.97,-683.5 1353.41,-683.5 1353.41,-683.5 1347.41,-683.5 1341.41,-677.5 1341.41,-671.5 1341.41,-671.5 1341.41,-399.5 1341.41,-399.5 1341.41,-393.5 1347.41,-387.5 1353.41,-387.5"/>
<text text-anchor="middle" x="1443.69" y="-668.3" font-family="Times,serif" font-size="14.00">User::Nil</text>
<polyline fill="none" stroke="black" points="1341.41,-661.5 1545.97,-661.5 "/>
<text text-anchor="start" x="1349.41" y="-646.3" font-family="Times,serif" font-size="14.00">id :integer</text>
<text text-anchor="start" x="1349.41" y="-632.3" font-family="Times,serif" font-size="14.00">login :string</text>
<text text-anchor="start" x="1349.41" y="-618.3" font-family="Times,serif" font-size="14.00">name :string</text>
<text text-anchor="start" x="1349.41" y="-604.3" font-family="Times,serif" font-size="14.00">email :string</text>
<text text-anchor="start" x="1349.41" y="-590.3" font-family="Times,serif" font-size="14.00">type :string</text>
<text text-anchor="start" x="1349.41" y="-576.3" font-family="Times,serif" font-size="14.00">status :integer</text>
<text text-anchor="start" x="1349.41" y="-562.3" font-family="Times,serif" font-size="14.00">saint_id :string</text>
<text text-anchor="start" x="1349.41" y="-548.3" font-family="Times,serif" font-size="14.00">token :string</text>
<text text-anchor="start" x="1349.41" y="-534.3" font-family="Times,serif" font-size="14.00">encrypted_password :string</text>
<text text-anchor="start" x="1349.41" y="-520.3" font-family="Times,serif" font-size="14.00">reset_password_token :string</text>
<text text-anchor="start" x="1349.41" y="-506.3" font-family="Times,serif" font-size="14.00">reset_password_sent_at :datetime</text>
<text text-anchor="start" x="1349.41" y="-492.3" font-family="Times,serif" font-size="14.00">remember_created_at :datetime</text>
<text text-anchor="start" x="1349.41" y="-478.3" font-family="Times,serif" font-size="14.00">sign_in_count :integer</text>
<text text-anchor="start" x="1349.41" y="-464.3" font-family="Times,serif" font-size="14.00">current_sign_in_at :datetime</text>
<text text-anchor="start" x="1349.41" y="-450.3" font-family="Times,serif" font-size="14.00">last_sign_in_at :datetime</text>
<text text-anchor="start" x="1349.41" y="-436.3" font-family="Times,serif" font-size="14.00">current_sign_in_ip :string</text>
<text text-anchor="start" x="1349.41" y="-422.3" font-family="Times,serif" font-size="14.00">last_sign_in_ip :string</text>
<text text-anchor="start" x="1349.41" y="-408.3" font-family="Times,serif" font-size="14.00">created_at :datetime</text>
<text text-anchor="start" x="1349.41" y="-394.3" font-family="Times,serif" font-size="14.00">updated_at :datetime</text>
</g>
<!-- User::Salesman -->
<g id="node11" class="node"><title>User::Salesman</title>
<path fill="none" stroke="black" d="M237.41,-387.5C237.41,-387.5 417.966,-387.5 417.966,-387.5 423.966,-387.5 429.966,-393.5 429.966,-399.5 429.966,-399.5 429.966,-671.5 429.966,-671.5 429.966,-677.5 423.966,-683.5 417.966,-683.5 417.966,-683.5 237.41,-683.5 237.41,-683.5 231.41,-683.5 225.41,-677.5 225.41,-671.5 225.41,-671.5 225.41,-399.5 225.41,-399.5 225.41,-393.5 231.41,-387.5 237.41,-387.5"/>
<text text-anchor="middle" x="327.688" y="-668.3" font-family="Times,serif" font-size="14.00">User::Salesman</text>
<polyline fill="none" stroke="black" points="225.41,-661.5 429.966,-661.5 "/>
<text text-anchor="start" x="233.41" y="-646.3" font-family="Times,serif" font-size="14.00">id :integer</text>
<text text-anchor="start" x="233.41" y="-632.3" font-family="Times,serif" font-size="14.00">login :string</text>
<text text-anchor="start" x="233.41" y="-618.3" font-family="Times,serif" font-size="14.00">name :string</text>
<text text-anchor="start" x="233.41" y="-604.3" font-family="Times,serif" font-size="14.00">email :string</text>
<text text-anchor="start" x="233.41" y="-590.3" font-family="Times,serif" font-size="14.00">type :string</text>
<text text-anchor="start" x="233.41" y="-576.3" font-family="Times,serif" font-size="14.00">status :integer</text>
<text text-anchor="start" x="233.41" y="-562.3" font-family="Times,serif" font-size="14.00">saint_id :string</text>
<text text-anchor="start" x="233.41" y="-548.3" font-family="Times,serif" font-size="14.00">token :string</text>
<text text-anchor="start" x="233.41" y="-534.3" font-family="Times,serif" font-size="14.00">encrypted_password :string</text>
<text text-anchor="start" x="233.41" y="-520.3" font-family="Times,serif" font-size="14.00">reset_password_token :string</text>
<text text-anchor="start" x="233.41" y="-506.3" font-family="Times,serif" font-size="14.00">reset_password_sent_at :datetime</text>
<text text-anchor="start" x="233.41" y="-492.3" font-family="Times,serif" font-size="14.00">remember_created_at :datetime</text>
<text text-anchor="start" x="233.41" y="-478.3" font-family="Times,serif" font-size="14.00">sign_in_count :integer</text>
<text text-anchor="start" x="233.41" y="-464.3" font-family="Times,serif" font-size="14.00">current_sign_in_at :datetime</text>
<text text-anchor="start" x="233.41" y="-450.3" font-family="Times,serif" font-size="14.00">last_sign_in_at :datetime</text>
<text text-anchor="start" x="233.41" y="-436.3" font-family="Times,serif" font-size="14.00">current_sign_in_ip :string</text>
<text text-anchor="start" x="233.41" y="-422.3" font-family="Times,serif" font-size="14.00">last_sign_in_ip :string</text>
<text text-anchor="start" x="233.41" y="-408.3" font-family="Times,serif" font-size="14.00">created_at :datetime</text>
<text text-anchor="start" x="233.41" y="-394.3" font-family="Times,serif" font-size="14.00">updated_at :datetime</text>
</g>
<!-- User::Salesman&#45;&gt;Client -->
<g id="edge2" class="edge"><title>User::Salesman&#45;&gt;Client</title>
<path fill="none" stroke="#5bc1c7" d="M303.176,-377.264C298.924,-331.692 297.022,-281.863 301.143,-236 301.944,-227.082 303.036,-217.873 304.317,-208.649"/>
<polygon fill="#5bc1c7" stroke="#5bc1c7" points="303.177,-377.271 299.67,-387.661 303.663,-382.247 304.149,-387.223 304.149,-387.223 304.149,-387.223 303.663,-382.247 308.627,-386.786 303.177,-377.271 303.177,-377.271"/>
<polygon fill="#5bc1c7" stroke="#5bc1c7" points="304.332,-208.543 310.229,-199.298 305.054,-203.596 305.776,-198.648 305.776,-198.648 305.776,-198.648 305.054,-203.596 301.323,-197.998 304.332,-208.543 304.332,-208.543"/>
<text text-anchor="middle" x="319.96" y="-282.3" font-family="Times,serif" font-size="14.00">clients</text>
</g>
<!-- Zone -->
<g id="node13" class="node"><title>Zone</title>
<path fill="none" stroke="black" d="M358.496,-236.5C358.496,-236.5 448.879,-236.5 448.879,-236.5 454.879,-236.5 460.879,-242.5 460.879,-248.5 460.879,-248.5 460.879,-324.5 460.879,-324.5 460.879,-330.5 454.879,-336.5 448.879,-336.5 448.879,-336.5 358.496,-336.5 358.496,-336.5 352.496,-336.5 346.496,-330.5 346.496,-324.5 346.496,-324.5 346.496,-248.5 346.496,-248.5 346.496,-242.5 352.496,-236.5 358.496,-236.5"/>
<text text-anchor="middle" x="403.688" y="-321.3" font-family="Times,serif" font-size="14.00">Zone</text>
<polyline fill="none" stroke="black" points="346.496,-314.5 460.879,-314.5 "/>
<text text-anchor="start" x="354.496" y="-299.3" font-family="Times,serif" font-size="14.00">id :integer</text>
<text text-anchor="start" x="354.496" y="-285.3" font-family="Times,serif" font-size="14.00">login_user :string</text>
<text text-anchor="start" x="354.496" y="-271.3" font-family="Times,serif" font-size="14.00">name :string</text>
<text text-anchor="start" x="354.496" y="-257.3" font-family="Times,serif" font-size="14.00">description :text</text>
<text text-anchor="start" x="354.496" y="-243.3" font-family="Times,serif" font-size="14.00">user_id :integer</text>
</g>
<!-- User::Salesman&#45;&gt;Zone -->
<g id="edge3" class="edge"><title>User::Salesman&#45;&gt;Zone</title>
<path fill="none" stroke="#9c2f60" d="M375.47,-379.208C379.031,-367.634 382.469,-356.46 385.647,-346.131"/>
<ellipse fill="none" stroke="#9c2f60" cx="374.171" cy="-383.429" rx="4.00001" ry="4.00001"/>
<polygon fill="#9c2f60" stroke="#9c2f60" points="385.669,-346.06 392.911,-337.826 387.14,-341.281 388.61,-336.502 388.61,-336.502 388.61,-336.502 387.14,-341.281 384.309,-335.179 385.669,-346.06 385.669,-346.06"/>
<text text-anchor="middle" x="397.626" y="-357.8" font-family="Times,serif" font-size="14.00">zones</text>
</g>
<!-- User -->
<g id="node12" class="node"><title>User</title>
<path fill="none" stroke="black" d="M1576.41,-387.5C1576.41,-387.5 1756.97,-387.5 1756.97,-387.5 1762.97,-387.5 1768.97,-393.5 1768.97,-399.5 1768.97,-399.5 1768.97,-671.5 1768.97,-671.5 1768.97,-677.5 1762.97,-683.5 1756.97,-683.5 1756.97,-683.5 1576.41,-683.5 1576.41,-683.5 1570.41,-683.5 1564.41,-677.5 1564.41,-671.5 1564.41,-671.5 1564.41,-399.5 1564.41,-399.5 1564.41,-393.5 1570.41,-387.5 1576.41,-387.5"/>
<text text-anchor="middle" x="1666.69" y="-668.3" font-family="Times,serif" font-size="14.00">User</text>
<polyline fill="none" stroke="black" points="1564.41,-661.5 1768.97,-661.5 "/>
<text text-anchor="start" x="1572.41" y="-646.3" font-family="Times,serif" font-size="14.00">id :integer</text>
<text text-anchor="start" x="1572.41" y="-632.3" font-family="Times,serif" font-size="14.00">login :string</text>
<text text-anchor="start" x="1572.41" y="-618.3" font-family="Times,serif" font-size="14.00">name :string</text>
<text text-anchor="start" x="1572.41" y="-604.3" font-family="Times,serif" font-size="14.00">email :string</text>
<text text-anchor="start" x="1572.41" y="-590.3" font-family="Times,serif" font-size="14.00">type :string</text>
<text text-anchor="start" x="1572.41" y="-576.3" font-family="Times,serif" font-size="14.00">status :integer</text>
<text text-anchor="start" x="1572.41" y="-562.3" font-family="Times,serif" font-size="14.00">saint_id :string</text>
<text text-anchor="start" x="1572.41" y="-548.3" font-family="Times,serif" font-size="14.00">token :string</text>
<text text-anchor="start" x="1572.41" y="-534.3" font-family="Times,serif" font-size="14.00">encrypted_password :string</text>
<text text-anchor="start" x="1572.41" y="-520.3" font-family="Times,serif" font-size="14.00">reset_password_token :string</text>
<text text-anchor="start" x="1572.41" y="-506.3" font-family="Times,serif" font-size="14.00">reset_password_sent_at :datetime</text>
<text text-anchor="start" x="1572.41" y="-492.3" font-family="Times,serif" font-size="14.00">remember_created_at :datetime</text>
<text text-anchor="start" x="1572.41" y="-478.3" font-family="Times,serif" font-size="14.00">sign_in_count :integer</text>
<text text-anchor="start" x="1572.41" y="-464.3" font-family="Times,serif" font-size="14.00">current_sign_in_at :datetime</text>
<text text-anchor="start" x="1572.41" y="-450.3" font-family="Times,serif" font-size="14.00">last_sign_in_at :datetime</text>
<text text-anchor="start" x="1572.41" y="-436.3" font-family="Times,serif" font-size="14.00">current_sign_in_ip :string</text>
<text text-anchor="start" x="1572.41" y="-422.3" font-family="Times,serif" font-size="14.00">last_sign_in_ip :string</text>
<text text-anchor="start" x="1572.41" y="-408.3" font-family="Times,serif" font-size="14.00">created_at :datetime</text>
<text text-anchor="start" x="1572.41" y="-394.3" font-family="Times,serif" font-size="14.00">updated_at :datetime</text>
</g>
<!-- Zone&#45;&gt;Client -->
<g id="edge4" class="edge"><title>Zone&#45;&gt;Client</title>
<path fill="none" stroke="#a31e76" d="M379.784,-228.806C376.985,-222.166 374.063,-215.235 371.089,-208.183"/>
<ellipse fill="none" stroke="#a31e76" cx="381.436" cy="-232.723" rx="4.00002" ry="4.00002"/>
<polygon fill="#a31e76" stroke="#a31e76" points="370.895,-207.723 371.157,-196.76 368.953,-203.115 367.01,-198.508 367.01,-198.508 367.01,-198.508 368.953,-203.115 362.864,-200.256 370.895,-207.723 370.895,-207.723"/>
</g>
</g>
</svg>
