<?xml version="1.0" encoding="UTF-8" standalone="no"?>
<!DOCTYPE svg PUBLIC "-//W3C//DTD SVG 1.1//EN"
 "http://www.w3.org/Graphics/SVG/1.1/DTD/svg11.dtd">
<!-- Generated by graphviz version 2.38.0 (20140413.2041)
 -->
<!-- Title: models_diagram Pages: 1 -->
<svg width="1177pt" height="240pt"
 viewBox="0.00 0.00 1176.69 240.00" xmlns="http://www.w3.org/2000/svg" xmlns:xlink="http://www.w3.org/1999/xlink">
<g id="graph0" class="graph" transform="scale(1 1) rotate(0) translate(4 236)">
<title>models_diagram</title>
<polygon fill="none" stroke="none" points="-4,4 -4,-236 1172.69,-236 1172.69,4 -4,4"/>
<!-- _diagram_info -->
<g id="node1" class="node"><title>_diagram_info</title>
<text text-anchor="start" x="8" y="-217.6" font-family="Times,serif" font-size="13.00">Models diagram</text>
<text text-anchor="start" x="8" y="-204.6" font-family="Times,serif" font-size="13.00">Date: Aug 15 2015 &#45; 23:38</text>
<text text-anchor="start" x="8" y="-191.6" font-family="Times,serif" font-size="13.00">Migration version: 20150810025940</text>
<text text-anchor="start" x="8" y="-178.6" font-family="Times,serif" font-size="13.00">Generated by RailRoady 1.3.1</text>
<text text-anchor="start" x="8" y="-165.6" font-family="Times,serif" font-size="13.00">http://railroady.prestonlee.com</text>
</g>
<!-- Client -->
<g id="node2" class="node"><title>Client</title>
<ellipse fill="none" stroke="black" cx="288.688" cy="-18" rx="31.948" ry="18"/>
<text text-anchor="middle" x="288.688" y="-13.8" font-family="Times,serif" font-size="14.00">Client</text>
</g>
<!-- Discount -->
<g id="node3" class="node"><title>Discount</title>
<ellipse fill="none" stroke="black" cx="416.688" cy="-195.5" rx="42.0784" ry="18"/>
<text text-anchor="middle" x="416.688" y="-191.3" font-family="Times,serif" font-size="14.00">Discount</text>
</g>
<!-- IVA -->
<g id="node4" class="node"><title>IVA</title>
<ellipse fill="none" stroke="black" cx="503.688" cy="-195.5" rx="27" ry="18"/>
<text text-anchor="middle" x="503.688" y="-191.3" font-family="Times,serif" font-size="14.00">IVA</text>
</g>
<!-- Order::Item -->
<g id="node5" class="node"><title>Order::Item</title>
<ellipse fill="none" stroke="black" cx="579.688" cy="-91" rx="51.7002" ry="18"/>
<text text-anchor="middle" x="579.688" y="-86.8" font-family="Times,serif" font-size="14.00">Order::Item</text>
</g>
<!-- Order -->
<g id="node6" class="node"><title>Order</title>
<ellipse fill="none" stroke="black" cx="579.688" cy="-195.5" rx="30.9619" ry="18"/>
<text text-anchor="middle" x="579.688" y="-191.3" font-family="Times,serif" font-size="14.00">Order</text>
</g>
<!-- Order&#45;&gt;Order::Item -->
<g id="edge1" class="edge"><title>Order&#45;&gt;Order::Item</title>
<path fill="none" stroke="#2a0b8a" d="M579.688,-169.017C579.688,-153.986 579.688,-134.959 579.688,-119.577"/>
<ellipse fill="none" stroke="#2a0b8a" cx="579.688" cy="-173.112" rx="4" ry="4"/>
<polygon fill="#2a0b8a" stroke="#2a0b8a" points="579.688,-119.131 584.188,-109.131 579.688,-114.131 579.688,-109.131 579.688,-109.131 579.688,-109.131 579.688,-114.131 575.188,-109.131 579.688,-119.131 579.688,-119.131"/>
<text text-anchor="middle" x="594.853" y="-129.8" font-family="Times,serif" font-size="14.00">items</text>
</g>
<!-- Product -->
<g id="node7" class="node"><title>Product</title>
<ellipse fill="none" stroke="black" cx="665.688" cy="-195.5" rx="37.7352" ry="18"/>
<text text-anchor="middle" x="665.688" y="-191.3" font-family="Times,serif" font-size="14.00">Product</text>
</g>
<!-- User::Administration -->
<g id="node8" class="node"><title>User::Administration</title>
<ellipse fill="none" stroke="black" cx="806.688" cy="-195.5" rx="85.0359" ry="18"/>
<text text-anchor="middle" x="806.688" y="-191.3" font-family="Times,serif" font-size="14.00">User::Administration</text>
</g>
<!-- User::Guest -->
<g id="node9" class="node"><title>User::Guest</title>
<polygon fill="none" stroke="black" points="993.064,-213.5 910.312,-213.5 910.312,-177.5 993.064,-177.5 993.064,-213.5"/>
<text text-anchor="middle" x="951.688" y="-191.3" font-family="Times,serif" font-size="14.00">User::Guest</text>
</g>
<!-- User::Nil -->
<g id="node10" class="node"><title>User::Nil</title>
<ellipse fill="none" stroke="black" cx="1053.69" cy="-195.5" rx="43.0387" ry="18"/>
<text text-anchor="middle" x="1053.69" y="-191.3" font-family="Times,serif" font-size="14.00">User::Nil</text>
</g>
<!-- User::Salesman -->
<g id="node11" class="node"><title>User::Salesman</title>
<ellipse fill="none" stroke="black" cx="290.688" cy="-195.5" rx="65.7235" ry="18"/>
<text text-anchor="middle" x="290.688" y="-191.3" font-family="Times,serif" font-size="14.00">User::Salesman</text>
</g>
<!-- User::Salesman&#45;&gt;Client -->
<g id="edge2" class="edge"><title>User::Salesman&#45;&gt;Client</title>
<path fill="none" stroke="#c32744" d="M281.401,-167.482C274.114,-142.864 265.996,-105.497 271.143,-73 272.606,-63.7629 275.394,-53.9556 278.325,-45.2695"/>
<polygon fill="#c32744" stroke="#c32744" points="281.454,-167.654 280.135,-178.54 282.943,-172.427 284.431,-177.201 284.431,-177.201 284.431,-177.201 282.943,-172.427 288.727,-175.861 281.454,-167.654 281.454,-167.654"/>
<polygon fill="#c32744" stroke="#c32744" points="278.384,-45.1025 285.995,-37.2077 280.072,-40.3958 281.759,-35.6891 281.759,-35.6891 281.759,-35.6891 280.072,-40.3958 277.523,-34.1705 278.384,-45.1025 278.384,-45.1025"/>
<text text-anchor="middle" x="289.96" y="-86.8" font-family="Times,serif" font-size="14.00">clients</text>
</g>
<!-- Zone -->
<g id="node13" class="node"><title>Zone</title>
<ellipse fill="none" stroke="black" cx="344.688" cy="-91" rx="28.0565" ry="18"/>
<text text-anchor="middle" x="344.688" y="-86.8" font-family="Times,serif" font-size="14.00">Zone</text>
</g>
<!-- User::Salesman&#45;&gt;Zone -->
<g id="edge3" class="edge"><title>User::Salesman&#45;&gt;Zone</title>
<path fill="none" stroke="#20c556" d="M303.403,-170.365C311.832,-154.365 322.87,-133.413 331.412,-117.199"/>
<ellipse fill="none" stroke="#20c556" cx="301.469" cy="-174.035" rx="4.00002" ry="4.00002"/>
<polygon fill="#20c556" stroke="#20c556" points="331.453,-117.121 340.096,-110.371 333.784,-112.697 336.115,-108.273 336.115,-108.273 336.115,-108.273 333.784,-112.697 332.133,-106.176 331.453,-117.121 331.453,-117.121"/>
<text text-anchor="middle" x="341.626" y="-129.8" font-family="Times,serif" font-size="14.00">zones</text>
</g>
<!-- User -->
<g id="node12" class="node"><title>User</title>
<ellipse fill="none" stroke="black" cx="1141.69" cy="-195.5" rx="27" ry="18"/>
<text text-anchor="middle" x="1141.69" y="-191.3" font-family="Times,serif" font-size="14.00">User</text>
</g>
<!-- Zone&#45;&gt;Client -->
<g id="edge4" class="edge"><title>Zone&#45;&gt;Client</title>
<path fill="none" stroke="#4246cb" d="M327.488,-68.1936C321.189,-60.2066 314.028,-51.1273 307.587,-42.9619"/>
<ellipse fill="none" stroke="#4246cb" cx="330.059" cy="-71.4534" rx="4.00002" ry="4.00002"/>
<polygon fill="#4246cb" stroke="#4246cb" points="307.396,-42.7192 304.736,-32.0807 304.299,-38.7933 301.203,-34.8675 301.203,-34.8675 301.203,-34.8675 304.299,-38.7933 297.67,-37.6543 307.396,-42.7192 307.396,-42.7192"/>
</g>
</g>
</svg>
